<svg width="100" height="100" viewBox="0 0 100 100" fill="none" xmlns="http://www.w3.org/2000/svg">
<g id="Vector">
<path d="M100 50L50 0L0 50L50 100L100 50Z" fill="#C7BAAF"/>
<path d="M97.3282 50L50 2.67176L2.67176 50L50 97.3282L97.3282 50Z" fill="#F06A2B"/>
<path d="M94.2748 50L50 5.72519L5.72519 50L50 94.2748L94.2748 50Z" fill="url(#paint0_linear_0_85)"/>
<path fill-rule="evenodd" clip-rule="evenodd" d="M32.5213 65.3129L33.3138 67.0008L35.0854 67.2717L33.8032 68.5853L34.1063 70.4408L32.5213 69.5649L30.9367 70.4408L31.2394 68.5853L29.9576 67.2717L31.7292 67.0008L32.5213 65.3129Z" fill="#FFCB00"/>
<path fill-rule="evenodd" clip-rule="evenodd" d="M67.6068 65.3129L68.3992 67.0008L70.1709 67.2717L68.8886 68.5853L69.1917 70.4408L67.6068 69.5649L66.0222 70.4408L66.3249 68.5853L65.043 67.2717L66.8147 67.0008L67.6068 65.3129Z" fill="#FFCB00"/>
<path fill-rule="evenodd" clip-rule="evenodd" d="M48.8194 13.4944H50.8308C50.9291 13.4944 51.0088 13.5741 51.0088 13.6724V13.7442C51.0088 13.8125 50.983 13.8783 50.9364 13.9282L44.6138 20.7135C44.5174 20.8169 44.5172 20.9772 44.6133 21.0809L49.6117 26.4748C49.7069 26.5774 49.7077 26.7358 49.6138 26.8395L48.6975 27.8505C48.5974 27.9609 48.4267 27.9693 48.3163 27.8692C48.3106 27.8641 48.3051 27.8587 48.2999 27.853L42.0033 21.0806C41.9071 20.977 41.907 20.8168 42.0032 20.7132L48.6216 13.5807C48.6726 13.5257 48.7443 13.4944 48.8194 13.4944Z" fill="#F06A2A"/>
<path fill-rule="evenodd" clip-rule="evenodd" d="M51.3019 29.1479H49.2992C49.2 29.1479 49.1196 29.0675 49.1196 28.9683V28.8932C49.1196 28.826 49.1447 28.7612 49.1899 28.7115L55.5112 21.7683C55.6049 21.6654 55.605 21.5081 55.5114 21.4051L50.5181 15.9081C50.4251 15.8057 50.4246 15.6496 50.5169 15.5465L51.4313 14.526C51.5308 14.415 51.7014 14.4057 51.8124 14.5051C51.819 14.5111 51.8254 14.5173 51.8314 14.5239L58.1296 21.4052C58.2238 21.5081 58.224 21.6658 58.1302 21.769L51.5016 29.0596C51.4505 29.1158 51.378 29.1479 51.3019 29.1479Z" fill="#F06A2A"/>
<path fill-rule="evenodd" clip-rule="evenodd" d="M50.3958 24.8297C51.7068 24.8297 52.7409 23.3539 52.6183 21.7759C52.5637 21.0738 52.1381 19.8169 51.9938 20.0405C51.9225 20.151 52.0842 21.0133 52.0312 21.5408C51.9432 22.4177 51.6114 22.9517 51.4419 22.6395C51.2724 22.3273 51.3305 21.7112 51.2894 21.0626C51.2448 20.3594 51.1284 19.659 50.9838 19.2246C50.9208 19.0352 50.3274 17.4249 49.8995 17.2728C49.8718 17.2728 49.8543 17.2728 49.8472 17.2728C49.8334 17.2728 49.7942 17.2863 49.7702 17.3076C49.6759 17.3916 49.8178 17.9444 49.425 18.6176C49.1672 19.0595 48.6648 19.6357 48.4185 20.2015C48.0851 20.9675 48.0256 21.7182 48.0427 22.1146C48.1175 23.8438 49.0848 24.8297 50.3958 24.8297Z" fill="#F06A2A"/>
<path fill-rule="evenodd" clip-rule="evenodd" d="M18.1759 40.2133H81.8251L91.7619 50.0642L81.8251 59.9152H18.1759L8.36653 50.0642L18.1759 40.2133Z" fill="url(#paint1_linear_0_85)"/>
<path d="M37.9156 67.2056L39.0542 67.0949C39.1227 67.477 39.2611 67.7577 39.4693 67.9369C39.6802 68.1162 39.9635 68.2058 40.3193 68.2058C40.6962 68.2058 40.9795 68.1267 41.1693 67.9686C41.3617 67.8078 41.4579 67.6207 41.4579 67.4072C41.4579 67.2701 41.417 67.1542 41.3353 67.0593C41.2563 66.9618 41.1166 66.8774 40.9163 66.8063C40.7792 66.7588 40.4669 66.6745 39.9793 66.5532C39.352 66.3977 38.9119 66.2067 38.6589 65.98C38.303 65.6611 38.1251 65.2723 38.1251 64.8137C38.1251 64.5185 38.2082 64.2431 38.3742 63.9875C38.5429 63.7292 38.784 63.5328 39.0977 63.3984C39.414 63.264 39.7948 63.1968 40.2402 63.1968C40.9677 63.1968 41.5146 63.3562 41.8809 63.6751C42.2499 63.994 42.4436 64.4197 42.4621 64.9521L41.2918 65.0035C41.2418 64.7057 41.1337 64.4922 40.9677 64.363C40.8043 64.2313 40.5578 64.1654 40.2284 64.1654C39.8884 64.1654 39.6222 64.2352 39.4298 64.3749C39.3059 64.4645 39.244 64.5844 39.244 64.7347C39.244 64.8717 39.3019 64.989 39.4179 65.0865C39.5655 65.2104 39.924 65.3395 40.4933 65.474C41.0625 65.6084 41.4829 65.7481 41.7544 65.893C42.0285 66.0353 42.242 66.2317 42.3949 66.4821C42.5504 66.7298 42.6281 67.0369 42.6281 67.4032C42.6281 67.7353 42.5359 68.0463 42.3514 68.3362C42.1669 68.6262 41.9059 68.8423 41.5686 68.9846C41.2312 69.1243 40.8108 69.1941 40.3074 69.1941C39.5747 69.1941 39.012 69.0255 38.6193 68.6881C38.2266 68.3481 37.992 67.8539 37.9156 67.2056Z" fill="white"/>
<path d="M43.573 64.8928H44.6088V65.5095C44.7432 65.2987 44.9251 65.1274 45.1544 64.9956C45.3837 64.8638 45.638 64.7979 45.9174 64.7979C46.405 64.7979 46.8188 64.989 47.1587 65.3712C47.4987 65.7533 47.6687 66.2857 47.6687 66.9684C47.6687 67.6694 47.4974 68.215 47.1548 68.6051C46.8122 68.9925 46.3971 69.1862 45.9095 69.1862C45.6775 69.1862 45.4667 69.1401 45.2769 69.0479C45.0898 68.9556 44.8921 68.7975 44.6839 68.5734V70.6885H43.573V64.8928ZM44.672 66.9209C44.672 67.3927 44.7656 67.7419 44.9527 67.9686C45.1399 68.1926 45.3678 68.3046 45.6367 68.3046C45.895 68.3046 46.1098 68.2018 46.2811 67.9962C46.4524 67.788 46.5381 67.448 46.5381 66.9763C46.5381 66.5361 46.4498 66.2093 46.2732 65.9958C46.0966 65.7823 45.8778 65.6756 45.6169 65.6756C45.3454 65.6756 45.1201 65.781 44.9409 65.9919C44.7616 66.2001 44.672 66.5098 44.672 66.9209Z" fill="white"/>
<path d="M49.6178 69.0913H48.5069V64.8928H49.5387V65.4898C49.7153 65.2078 49.8734 65.0219 50.0131 64.9323C50.1555 64.8427 50.3162 64.7979 50.4954 64.7979C50.7485 64.7979 50.9923 64.8678 51.2268 65.0074L50.8829 65.976C50.6958 65.8548 50.5218 65.7942 50.361 65.7942C50.2055 65.7942 50.0737 65.8377 49.9657 65.9246C49.8576 66.009 49.772 66.1632 49.7087 66.3872C49.6481 66.6112 49.6178 67.0804 49.6178 67.7946V69.0913Z" fill="white"/>
<path d="M51.7092 64.3235V63.2956H52.8201V64.3235H51.7092ZM51.7092 69.0913V64.8928H52.8201V69.0913H51.7092Z" fill="white"/>
<path d="M57.7816 69.0913H56.6707V66.9486C56.6707 66.4953 56.647 66.2027 56.5996 66.0709C56.5521 65.9365 56.4744 65.8324 56.3663 65.7586C56.2609 65.6848 56.1331 65.6479 55.9828 65.6479C55.7904 65.6479 55.6178 65.7006 55.4649 65.806C55.3121 65.9115 55.2066 66.0512 55.1486 66.2251C55.0933 66.3991 55.0656 66.7206 55.0656 67.1897V69.0913H53.9547V64.8928H54.9866V65.5095C55.3529 65.0351 55.8141 64.7979 56.3703 64.7979C56.6154 64.7979 56.8394 64.8427 57.0423 64.9323C57.2453 65.0193 57.3982 65.1313 57.5009 65.2684C57.6064 65.4054 57.6788 65.5609 57.7184 65.7349C57.7606 65.9088 57.7816 66.1579 57.7816 66.4821V69.0913Z" fill="white"/>
<path d="M58.8095 69.3681L60.0786 69.5223C60.0997 69.6699 60.1484 69.7713 60.2249 69.8267C60.3303 69.9058 60.4963 69.9453 60.723 69.9453C61.0129 69.9453 61.2304 69.9018 61.3753 69.8148C61.4728 69.7568 61.5466 69.6633 61.5967 69.5341C61.631 69.4419 61.6481 69.2719 61.6481 69.0241V68.4114C61.316 68.8647 60.8969 69.0913 60.3909 69.0913C59.8269 69.0913 59.3801 68.8528 59.0507 68.3758C58.7924 67.9989 58.6633 67.5297 58.6633 66.9684C58.6633 66.2646 58.8319 65.727 59.1693 65.3553C59.5093 64.9837 59.931 64.7979 60.4344 64.7979C60.9536 64.7979 61.3819 65.0259 61.7193 65.4819V64.8928H62.759V68.6604C62.759 69.1559 62.7182 69.5262 62.6365 69.7713C62.5548 70.0164 62.4401 70.2089 62.2925 70.3485C62.1449 70.4882 61.9472 70.5976 61.6995 70.6767C61.4544 70.7557 61.1434 70.7953 60.7665 70.7953C60.0549 70.7953 59.5501 70.6727 59.2523 70.4276C58.9545 70.1851 58.8056 69.8768 58.8056 69.5025C58.8056 69.4656 58.8069 69.4208 58.8095 69.3681ZM59.8018 66.9051C59.8018 67.3505 59.8875 67.6773 60.0588 67.8856C60.2328 68.0911 60.4463 68.1939 60.6993 68.1939C60.9707 68.1939 61.2 68.0885 61.3872 67.8776C61.5743 67.6642 61.6679 67.3492 61.6679 66.9328C61.6679 66.4979 61.5783 66.175 61.399 65.9642C61.2198 65.7533 60.9931 65.6479 60.719 65.6479C60.4528 65.6479 60.2328 65.752 60.0588 65.9602C59.8875 66.1658 59.8018 66.4808 59.8018 66.9051Z" fill="white"/>
<path d="M45.406 77.7755V78.8073H41.5118C41.554 78.4172 41.6805 78.0483 41.8914 77.7004C42.1022 77.3498 42.5186 76.8859 43.1406 76.3087C43.6414 75.8422 43.9485 75.526 44.0618 75.3599C44.2147 75.1306 44.2911 74.904 44.2911 74.6799C44.2911 74.4322 44.2239 74.2424 44.0895 74.1106C43.9577 73.9762 43.7745 73.909 43.5399 73.909C43.308 73.909 43.1235 73.9789 42.9865 74.1185C42.8494 74.2582 42.7703 74.4902 42.7493 74.8143L41.6423 74.7037C41.7082 74.0922 41.9151 73.6534 42.263 73.3872C42.6109 73.121 43.0458 72.9879 43.5676 72.9879C44.1395 72.9879 44.5889 73.142 44.9157 73.4504C45.2426 73.7588 45.406 74.1423 45.406 74.6009C45.406 74.8618 45.3585 75.1109 45.2636 75.3481C45.1714 75.5826 45.0238 75.8291 44.8209 76.0873C44.6864 76.2587 44.444 76.5051 44.0934 76.8266C43.7429 77.1482 43.5202 77.3617 43.4253 77.4671C43.333 77.5725 43.2579 77.6753 43.1999 77.7755H45.406Z" fill="white"/>
<path d="M48.039 72.9879C48.6003 72.9879 49.0392 73.1882 49.3554 73.5888C49.7323 74.0632 49.9208 74.8499 49.9208 75.949C49.9208 77.0454 49.731 77.8335 49.3515 78.3131C49.0379 78.7085 48.6003 78.9062 48.039 78.9062C47.4749 78.9062 47.0203 78.69 46.675 78.2578C46.3298 77.8229 46.1571 77.0494 46.1571 75.9371C46.1571 74.846 46.3469 74.0606 46.7264 73.5809C47.0401 73.1855 47.4776 72.9879 48.039 72.9879ZM48.039 73.909C47.9045 73.909 47.7846 73.9525 47.6792 74.0395C47.5738 74.1238 47.4921 74.2767 47.4341 74.4981C47.3576 74.7854 47.3194 75.269 47.3194 75.949C47.3194 76.629 47.3537 77.0968 47.4222 77.3525C47.4907 77.6055 47.5764 77.7742 47.6792 77.8585C47.7846 77.9428 47.9045 77.985 48.039 77.985C48.1734 77.985 48.2933 77.9428 48.3987 77.8585C48.5041 77.7715 48.5858 77.6173 48.6438 77.3959C48.7203 77.1113 48.7585 76.629 48.7585 75.949C48.7585 75.269 48.7242 74.8025 48.6557 74.5495C48.5872 74.2938 48.5002 74.1238 48.3948 74.0395C48.292 73.9525 48.1734 73.909 48.039 73.909Z" fill="white"/>
<path d="M54.4198 77.7755V78.8073H50.5257C50.5678 78.4172 50.6943 78.0483 50.9052 77.7004C51.116 77.3498 51.5325 76.8859 52.1545 76.3087C52.6553 75.8422 52.9623 75.526 53.0756 75.3599C53.2285 75.1306 53.3049 74.904 53.3049 74.6799C53.3049 74.4322 53.2377 74.2424 53.1033 74.1106C52.9715 73.9762 52.7883 73.909 52.5538 73.909C52.3218 73.909 52.1374 73.9789 52.0003 74.1185C51.8632 74.2582 51.7842 74.4902 51.7631 74.8143L50.6561 74.7037C50.722 74.0922 50.9289 73.6534 51.2768 73.3872C51.6247 73.121 52.0596 72.9879 52.5815 72.9879C53.1534 72.9879 53.6028 73.142 53.9296 73.4504C54.2564 73.7588 54.4198 74.1423 54.4198 74.6009C54.4198 74.8618 54.3724 75.1109 54.2775 75.3481C54.1852 75.5826 54.0376 75.8291 53.8347 76.0873C53.7003 76.2587 53.4578 76.5051 53.1073 76.8266C52.7567 77.1482 52.534 77.3617 52.4391 77.4671C52.3469 77.5725 52.2718 77.6753 52.2138 77.7755H54.4198Z" fill="white"/>
<path d="M58.0174 78.8073H56.9065V74.6206C56.5006 75.0002 56.0223 75.2809 55.4714 75.4627V74.4546C55.7613 74.3597 56.0763 74.1805 56.4163 73.9169C56.7563 73.6507 56.9895 73.341 57.116 72.9879H58.0174V78.8073Z" fill="white"/>
<path d="M16.1296 52.8981V46.6382H13.8939V45.3636H19.8814V46.6382H17.6508V52.8981H16.1296Z" fill="black"/>
<path d="M19.7426 50.0919C19.7426 49.6122 19.8608 49.148 20.0972 48.6991C20.3337 48.2503 20.6677 47.9076 21.0994 47.6712C21.5346 47.4348 22.0194 47.3166 22.5539 47.3166C23.3796 47.3166 24.0563 47.5856 24.584 48.1235C25.1116 48.658 25.3755 49.3347 25.3755 50.1536C25.3755 50.9793 25.1082 51.6646 24.5737 52.2094C24.0426 52.7507 23.3728 53.0214 22.5642 53.0214C22.0639 53.0214 21.586 52.9083 21.1303 52.6822C20.678 52.4561 20.3337 52.1254 20.0972 51.6903C19.8608 51.2517 19.7426 50.7189 19.7426 50.0919ZM21.2228 50.169C21.2228 50.7104 21.3513 51.1249 21.6082 51.4128C21.8652 51.7006 22.1821 51.8445 22.559 51.8445C22.9359 51.8445 23.2512 51.7006 23.5047 51.4128C23.7617 51.1249 23.8902 50.7069 23.8902 50.1587C23.8902 49.6242 23.7617 49.2131 23.5047 48.9253C23.2512 48.6374 22.9359 48.4935 22.559 48.4935C22.1821 48.4935 21.8652 48.6374 21.6082 48.9253C21.3513 49.2131 21.2228 49.6276 21.2228 50.169Z" fill="black"/>
<path d="M26.4702 47.4399H27.8167V48.2417C27.9915 47.9676 28.2279 47.7449 28.526 47.5736C28.8241 47.4023 29.1547 47.3166 29.5179 47.3166C30.1518 47.3166 30.6897 47.565 31.1317 48.0618C31.5737 48.5586 31.7947 49.2508 31.7947 50.1382C31.7947 51.0496 31.572 51.7588 31.1265 52.2659C30.6811 52.7696 30.1415 53.0214 29.5076 53.0214C29.2061 53.0214 28.932 52.9614 28.6853 52.8415C28.442 52.7216 28.185 52.516 27.9144 52.2248V54.9744H26.4702V47.4399ZM27.899 50.0765C27.899 50.6898 28.0206 51.1438 28.2639 51.4385C28.5071 51.7297 28.8035 51.8753 29.153 51.8753C29.4888 51.8753 29.768 51.7417 29.9907 51.4744C30.2134 51.2038 30.3248 50.7618 30.3248 50.1484C30.3248 49.5763 30.21 49.1514 29.9804 48.8739C29.7509 48.5963 29.4665 48.4576 29.1273 48.4576C28.7744 48.4576 28.4814 48.5946 28.2484 48.8687C28.0154 49.1394 27.899 49.542 27.899 50.0765Z" fill="black"/>
<path d="M35.8857 52.8981V45.3636H38.3269C39.252 45.3636 39.8551 45.4013 40.136 45.4767C40.5677 45.5897 40.9292 45.8364 41.2205 46.2168C41.5117 46.5936 41.6573 47.0819 41.6573 47.6815C41.6573 48.1441 41.5734 48.5329 41.4055 48.8482C41.2376 49.1634 41.0234 49.4118 40.7631 49.5934C40.5061 49.7716 40.244 49.8898 39.9767 49.948C39.6135 50.02 39.0876 50.0559 38.3989 50.0559H37.407V52.8981H35.8857ZM37.407 46.6382V48.7762H38.2396C38.8392 48.7762 39.2401 48.7368 39.4422 48.658C39.6444 48.5792 39.802 48.4558 39.915 48.288C40.0315 48.1201 40.0898 47.9248 40.0898 47.7021C40.0898 47.428 40.0093 47.2018 39.8482 47.0236C39.6872 46.8455 39.4833 46.7341 39.2366 46.6896C39.055 46.6553 38.6901 46.6382 38.1419 46.6382H37.407Z" fill="black"/>
<path d="M46.0567 51.1609L47.4958 51.4025C47.3107 51.9301 47.0178 52.3327 46.6169 52.6103C46.2195 52.8844 45.7209 53.0214 45.1213 53.0214C44.1722 53.0214 43.4698 52.7113 43.0141 52.0912C42.6544 51.5943 42.4745 50.9673 42.4745 50.2101C42.4745 49.3056 42.7109 48.598 43.1837 48.0875C43.6566 47.5736 44.2545 47.3166 44.9774 47.3166C45.7895 47.3166 46.4302 47.5856 46.8996 48.1235C47.369 48.658 47.5934 49.4786 47.5728 50.5853H43.9547C43.9649 51.0136 44.0814 51.3477 44.3041 51.5875C44.5269 51.8239 44.8044 51.9421 45.1367 51.9421C45.3629 51.9421 45.553 51.8804 45.7072 51.7571C45.8614 51.6338 45.9779 51.435 46.0567 51.1609ZM46.1389 49.7013C46.1287 49.2833 46.0207 48.9664 45.8151 48.7505C45.6096 48.5312 45.3594 48.4216 45.0648 48.4216C44.7496 48.4216 44.4892 48.5364 44.2836 48.7659C44.078 48.9955 43.9769 49.3073 43.9804 49.7013H46.1389Z" fill="black"/>
<path d="M50.1374 52.8981H48.6933V47.4399H50.0347V48.216C50.2642 47.8494 50.4698 47.6078 50.6514 47.4913C50.8364 47.3748 51.0454 47.3166 51.2784 47.3166C51.6073 47.3166 51.9243 47.4074 52.2292 47.589L51.7821 48.8482C51.5388 48.6905 51.3127 48.6117 51.1037 48.6117C50.9015 48.6117 50.7302 48.6683 50.5897 48.7813C50.4492 48.891 50.3379 49.0914 50.2556 49.3827C50.1768 49.6739 50.1374 50.2838 50.1374 51.2123V52.8981Z" fill="black"/>
<path d="M52.2241 47.4399H53.0258V47.0288C53.0258 46.5697 53.0738 46.227 53.1697 46.0009C53.2691 45.7748 53.449 45.5914 53.7094 45.451C53.9732 45.3071 54.3056 45.2351 54.7064 45.2351C55.1176 45.2351 55.5202 45.2968 55.9142 45.4201L55.7189 46.4275C55.4893 46.3727 55.2683 46.3452 55.0559 46.3452C54.8469 46.3452 54.6962 46.3949 54.6036 46.4943C54.5146 46.5902 54.47 46.777 54.47 47.0545V47.4399H55.5493V48.5758H54.47V52.8981H53.0258V48.5758H52.2241V47.4399Z" fill="black"/>
<path d="M56.0273 50.0919C56.0273 49.6122 56.1455 49.148 56.3819 48.6991C56.6183 48.2503 56.9524 47.9076 57.3841 47.6712C57.8192 47.4348 58.3041 47.3166 58.8386 47.3166C59.6643 47.3166 60.341 47.5856 60.8687 48.1235C61.3963 48.658 61.6601 49.3347 61.6601 50.1536C61.6601 50.9793 61.3929 51.6646 60.8584 52.2094C60.3273 52.7507 59.6575 53.0214 58.8488 53.0214C58.3486 53.0214 57.8706 52.9083 57.4149 52.6822C56.9627 52.4561 56.6183 52.1254 56.3819 51.6903C56.1455 51.2517 56.0273 50.7189 56.0273 50.0919ZM57.5074 50.169C57.5074 50.7104 57.6359 51.1249 57.8929 51.4128C58.1499 51.7006 58.4668 51.8445 58.8437 51.8445C59.2206 51.8445 59.5358 51.7006 59.7894 51.4128C60.0463 51.1249 60.1748 50.7069 60.1748 50.1587C60.1748 49.6242 60.0463 49.2131 59.7894 48.9253C59.5358 48.6374 59.2206 48.4935 58.8437 48.4935C58.4668 48.4935 58.1499 48.6374 57.8929 48.9253C57.6359 49.2131 57.5074 49.6276 57.5074 50.169Z" fill="black"/>
<path d="M64.1785 52.8981H62.7343V47.4399H64.0757V48.216C64.3052 47.8494 64.5108 47.6078 64.6924 47.4913C64.8774 47.3748 65.0864 47.3166 65.3194 47.3166C65.6484 47.3166 65.9653 47.4074 66.2702 47.589L65.8231 48.8482C65.5798 48.6905 65.3537 48.6117 65.1447 48.6117C64.9425 48.6117 64.7712 48.6683 64.6307 48.7813C64.4903 48.891 64.3789 49.0914 64.2967 49.3827C64.2179 49.6739 64.1785 50.2838 64.1785 51.2123V52.8981Z" fill="black"/>
<path d="M66.7893 47.4399H68.1204V48.1852C68.5967 47.6061 69.1638 47.3166 69.8216 47.3166C70.1711 47.3166 70.4743 47.3885 70.7313 47.5325C70.9883 47.6764 71.199 47.8939 71.3635 48.1852C71.6033 47.8939 71.862 47.6764 72.1395 47.5325C72.417 47.3885 72.7134 47.3166 73.0286 47.3166C73.4295 47.3166 73.7687 47.3988 74.0463 47.5633C74.3238 47.7243 74.5311 47.9625 74.6681 48.2777C74.7675 48.5107 74.8172 48.8876 74.8172 49.4084V52.8981H73.373V49.7784C73.373 49.237 73.3233 48.8876 73.2239 48.73C73.0903 48.5244 72.8847 48.4216 72.6072 48.4216C72.4051 48.4216 72.2149 48.4833 72.0367 48.6066C71.8586 48.73 71.7301 48.9115 71.6513 49.1514C71.5725 49.3878 71.5331 49.763 71.5331 50.2769V52.8981H70.0889V49.9069C70.0889 49.3758 70.0632 49.0332 70.0118 48.879C69.9604 48.7248 69.8799 48.61 69.7702 48.5347C69.664 48.4593 69.5184 48.4216 69.3334 48.4216C69.1106 48.4216 68.9102 48.4815 68.732 48.6015C68.5539 48.7214 68.4254 48.8944 68.3466 49.1206C68.2712 49.3467 68.2335 49.7219 68.2335 50.2461V52.8981H66.7893V47.4399Z" fill="black"/>
<path d="M79.4221 51.1609L80.8612 51.4025C80.6762 51.9301 80.3832 52.3327 79.9823 52.6103C79.5849 52.8844 79.0864 53.0214 78.4868 53.0214C77.5377 53.0214 76.8353 52.7113 76.3796 52.0912C76.0198 51.5943 75.8399 50.9673 75.8399 50.2101C75.8399 49.3056 76.0763 48.598 76.5492 48.0875C77.022 47.5736 77.6199 47.3166 78.3429 47.3166C79.1549 47.3166 79.7956 47.5856 80.265 48.1235C80.7344 48.658 80.9588 49.4786 80.9383 50.5853H77.3201C77.3304 51.0136 77.4469 51.3477 77.6696 51.5875C77.8923 51.8239 78.1698 51.9421 78.5022 51.9421C78.7283 51.9421 78.9185 51.8804 79.0727 51.7571C79.2268 51.6338 79.3433 51.435 79.4221 51.1609ZM79.5044 49.7013C79.4941 49.2833 79.3862 48.9664 79.1806 48.7505C78.975 48.5312 78.7249 48.4216 78.4302 48.4216C78.115 48.4216 77.8546 48.5364 77.649 48.7659C77.4434 48.9955 77.3424 49.3073 77.3458 49.7013H79.5044Z" fill="black"/>
<path d="M83.5029 52.8981H82.0587V47.4399H83.4001V48.216C83.6297 47.8494 83.8352 47.6078 84.0168 47.4913C84.2019 47.3748 84.4109 47.3166 84.6438 47.3166C84.9728 47.3166 85.2897 47.4074 85.5947 47.589L85.1475 48.8482C84.9042 48.6905 84.6781 48.6117 84.4691 48.6117C84.267 48.6117 84.0956 48.6683 83.9552 48.7813C83.8147 48.891 83.7033 49.0914 83.6211 49.3827C83.5423 49.6739 83.5029 50.2838 83.5029 51.2123V52.8981Z" fill="black"/>
<path fill-rule="evenodd" clip-rule="evenodd" d="M27.5746 33.1007C27.5553 33.1418 27.5277 33.1628 27.4809 33.1628C27.4534 33.1628 27.4158 33.1418 27.369 33.0906C27.3231 33.0395 27.257 32.9893 27.1827 32.9382C27.0983 32.876 27.0047 32.8259 26.8835 32.7847C26.7624 32.7336 26.6128 32.7125 26.4357 32.7125C26.2576 32.7125 26.109 32.7446 25.9686 32.7948C25.8383 32.8459 25.7263 32.9271 25.6327 33.0194C25.5391 33.1117 25.4739 33.223 25.4271 33.3454C25.3803 33.4677 25.3528 33.6011 25.3528 33.7335C25.3528 33.917 25.3904 34.0605 25.4547 34.1828C25.5207 34.2941 25.6143 34.3964 25.7355 34.4787C25.8474 34.5599 25.9777 34.6311 26.1273 34.6823C26.2769 34.7445 26.4265 34.7946 26.5761 34.8457C26.7248 34.8969 26.8743 34.9581 27.0239 35.0293C27.1735 35.0905 27.2947 35.1827 27.4158 35.274C27.5369 35.3663 27.6214 35.4997 27.6957 35.6411C27.7618 35.7845 27.7985 35.968 27.7985 36.1827C27.7985 36.4073 27.7618 36.6109 27.6957 36.8045C27.6305 36.999 27.5277 37.1725 27.3974 37.315C27.2671 37.4584 27.0983 37.5697 26.912 37.662C26.7156 37.7432 26.5008 37.7843 26.2576 37.7843C25.941 37.7843 25.6611 37.7232 25.4363 37.6008C25.2032 37.4784 25.0068 37.3039 24.8297 37.0913L24.9233 36.9268C24.9508 36.8857 24.9793 36.8767 25.016 36.8767C25.0353 36.8767 25.0628 36.8857 25.0912 36.9178C25.1188 36.9479 25.1656 36.989 25.2032 37.0291C25.25 37.0702 25.306 37.1214 25.3711 37.1725C25.4363 37.2227 25.5106 37.2738 25.5951 37.315C25.6795 37.3561 25.7731 37.3962 25.8851 37.4263C25.997 37.4584 26.1182 37.4674 26.2576 37.4674C26.454 37.4674 26.622 37.4373 26.7716 37.3761C26.9211 37.315 27.0515 37.2227 27.1542 37.1214C27.257 37.0191 27.3415 36.8767 27.3974 36.7333C27.4534 36.5808 27.4809 36.4173 27.4809 36.2539C27.4809 36.0703 27.4433 35.9179 27.3791 35.7955C27.313 35.6722 27.2194 35.5699 27.0983 35.4886C26.9863 35.4074 26.856 35.3362 26.7064 35.285C26.5568 35.2339 26.4082 35.1717 26.2576 35.1216C26.109 35.0704 25.9594 35.0082 25.8098 34.948C25.6611 34.8859 25.5391 34.8046 25.4179 34.7033C25.306 34.601 25.2124 34.4787 25.1381 34.3252C25.072 34.1718 25.0353 33.9893 25.0353 33.7536C25.0353 33.5811 25.0628 33.4076 25.128 33.2441C25.194 33.0796 25.2785 32.9382 25.3987 32.8048C25.5207 32.6824 25.6611 32.5801 25.8383 32.4989C26.0154 32.4277 26.2118 32.3866 26.4357 32.3866C26.6881 32.3866 26.912 32.4277 27.1166 32.52C27.313 32.6112 27.4993 32.7446 27.6682 32.9171L27.5746 33.1007Z" fill="white"/>
<path fill-rule="evenodd" clip-rule="evenodd" d="M33.1311 35.0849C33.1311 34.7203 33.0807 34.3856 32.9801 34.0917C32.8804 33.7978 32.7392 33.5548 32.5586 33.3525C32.378 33.1493 32.1569 32.9969 31.8963 32.8863C31.6348 32.7747 31.3535 32.7239 31.0426 32.7239C30.7307 32.7239 30.4503 32.7747 30.1888 32.8863C29.9272 32.9969 29.7071 33.1493 29.5265 33.3525C29.3459 33.5548 29.1949 33.7978 29.0942 34.0917C28.9935 34.3856 28.9432 34.7104 28.9432 35.0849C28.9432 35.4496 28.9935 35.7843 29.0942 36.0782C29.1949 36.3721 29.335 36.6151 29.5265 36.8184C29.7071 37.0206 29.9272 37.173 30.1888 37.2846C30.4503 37.3952 30.7307 37.447 31.0426 37.447C31.3535 37.447 31.6446 37.3952 31.8963 37.2846C32.1569 37.183 32.378 37.0206 32.5586 36.8184C32.7392 36.6151 32.8804 36.3721 32.9801 36.0782C33.0807 35.7843 33.1311 35.4605 33.1311 35.0849ZM33.4661 35.0854C33.4661 35.4914 33.4073 35.8564 33.2896 36.1915C33.1718 36.5266 33.0049 36.8099 32.7898 37.0443C32.5736 37.2767 32.3189 37.4602 32.0237 37.5918C31.7294 37.7245 31.3956 37.7843 31.0328 37.7843C30.6787 37.7843 30.3458 37.7245 30.0506 37.5918C29.7563 37.4602 29.5016 37.2876 29.2845 37.0443C29.0693 36.8099 28.9024 36.5266 28.7847 36.1915C28.667 35.8564 28.6081 35.4914 28.6081 35.0854C28.6081 34.6805 28.667 34.3145 28.7847 33.9804C28.9024 33.6452 29.0693 33.361 29.2845 33.1276C29.5016 32.8942 29.7563 32.7107 30.0506 32.5791C30.3458 32.4474 30.6787 32.3866 31.0328 32.3866C31.3956 32.3866 31.7294 32.4474 32.0237 32.5791C32.3189 32.7107 32.5736 32.8843 32.7898 33.1276C33.0049 33.361 33.1718 33.6452 33.2896 33.9804C33.4073 34.3145 33.4661 34.6805 33.4661 35.0854Z" fill="white"/>
<path fill-rule="evenodd" clip-rule="evenodd" d="M36.4448 37.4458C36.6842 37.4458 36.8953 37.4043 37.0876 37.3114C37.2789 37.2184 37.4325 37.0951 37.5663 36.9415C37.7011 36.7878 37.7963 36.5918 37.8632 36.3866C37.9311 36.1704 37.9688 35.945 37.9688 35.6873V32.3866H38.3241V35.6873C38.3241 35.9854 38.276 36.2522 38.1903 36.5099C38.1036 36.7666 37.9782 36.9829 37.8161 37.178C37.6531 37.3629 37.4514 37.5175 37.2214 37.6206C36.9914 37.7227 36.7228 37.7843 36.4354 37.7843C36.1479 37.7843 35.8783 37.7328 35.6484 37.6206C35.4184 37.5074 35.2177 37.3629 35.0537 37.178C34.8916 36.993 34.7662 36.7666 34.6805 36.5099C34.5937 36.2522 34.5457 35.9753 34.5457 35.6873V32.3866H34.9104V35.6772C34.9104 35.9238 34.9491 36.1603 35.016 36.3755C35.0829 36.5918 35.1884 36.7767 35.3129 36.9314C35.4476 37.086 35.6003 37.2093 35.7926 37.3013C35.9839 37.4043 36.2054 37.4458 36.4448 37.4458Z" fill="white"/>
<path fill-rule="evenodd" clip-rule="evenodd" d="M40.417 35.0486H40.7437C40.9864 35.0486 41.2083 35.018 41.3981 34.9658C41.588 34.9025 41.757 34.8299 41.8835 34.7164C42.0205 34.6111 42.1159 34.4762 42.1895 34.331C42.2632 34.1848 42.2953 34.0079 42.2953 33.8219C42.2953 33.4365 42.1688 33.1553 41.9157 32.9683C41.6626 32.7812 41.2924 32.6871 40.7966 32.6871H39.7947V37.7843H39.4037V32.3866H40.7966C41.4303 32.3866 41.9053 32.5113 42.2103 32.7505C42.5276 32.9887 42.6749 33.3424 42.6749 33.8106C42.6749 34.0192 42.6428 34.2063 42.5702 34.3729C42.4955 34.5385 42.3897 34.6949 42.2528 34.8197C42.1159 34.9444 41.9572 35.0589 41.7674 35.1315C41.5776 35.2153 41.3556 35.2674 41.1243 35.2981C41.1876 35.34 41.2395 35.3921 41.2924 35.4535L43.1821 37.7843H42.8336C42.7911 37.7843 42.76 37.7731 42.7278 37.7629C42.6967 37.7537 42.6645 37.7209 42.6428 37.6903L40.892 35.5056C40.8495 35.4535 40.7966 35.4126 40.7551 35.3921C40.7022 35.3707 40.3952 35.3615 40.2904 35.3615C40.2904 35.0793 40.3319 35.0486 40.417 35.0486Z" fill="white"/>
<path fill-rule="evenodd" clip-rule="evenodd" d="M47.0328 36.8391C47.0523 36.8391 47.0801 36.8501 47.0894 36.869L47.2304 37.0319C47.1274 37.1448 47.0235 37.2557 46.9002 37.3477C46.7777 37.4396 46.646 37.5205 46.5041 37.5815C46.363 37.6424 46.2016 37.6924 46.0421 37.7344C45.8723 37.7753 45.6831 37.7843 45.4855 37.7843C45.145 37.7843 44.8333 37.7234 44.5504 37.5915C44.2675 37.4596 44.0216 37.2857 43.824 37.0419C43.6255 36.8091 43.465 36.5243 43.3519 36.1886C43.2387 35.8538 43.1821 35.4871 43.1821 35.0805C43.1821 34.6848 43.2387 34.3181 43.3611 33.9833C43.4752 33.6476 43.645 33.3728 43.8519 33.129C44.0597 32.8952 44.3148 32.7113 44.607 32.5794C44.9001 32.4475 45.2304 32.3866 45.5792 32.3866C45.7582 32.3866 45.9187 32.3966 46.0699 32.4275C46.2211 32.4575 46.3538 32.4985 46.4855 32.5494C46.6172 32.6004 46.7304 32.6713 46.8436 32.7523C46.9568 32.8332 47.0709 32.9251 47.1738 33.0271L47.0709 33.1899C47.0523 33.2199 47.0235 33.2309 46.9855 33.2309C46.967 33.2309 46.9382 33.2199 46.9104 33.1899C46.8816 33.159 46.8343 33.129 46.787 33.088C46.7406 33.0471 46.6738 33.0071 46.6079 32.9661C46.5421 32.9152 46.4567 32.8742 46.3538 32.8442C46.2591 32.8032 46.145 32.7733 46.0133 32.7423C45.8909 32.7113 45.7397 32.7013 45.5792 32.7013C45.2768 32.7013 45.0031 32.7523 44.7582 32.8642C44.5133 32.9761 44.2962 33.129 44.1162 33.3418C43.9372 33.5457 43.7953 33.7995 43.6914 34.0842C43.5884 34.369 43.5411 34.7038 43.5411 35.0695C43.5411 35.4462 43.5884 35.7719 43.6914 36.0667C43.7953 36.3605 43.9279 36.6053 44.107 36.8091C44.2869 37.0119 44.4938 37.1638 44.7304 37.2757C44.966 37.3886 45.2304 37.4396 45.504 37.4396C45.6831 37.4396 45.8343 37.4286 45.9753 37.3986C46.1172 37.3776 46.2406 37.3377 46.3538 37.2857C46.4669 37.2348 46.5801 37.1748 46.6738 37.1039C46.7777 37.0319 46.8723 36.951 46.967 36.8501C46.9762 36.8391 46.9855 36.8291 46.9948 36.8291C47.0041 36.8501 47.0235 36.8391 47.0328 36.8391Z" fill="white"/>
<path fill-rule="evenodd" clip-rule="evenodd" d="M51.2787 32.3866V32.7092H48.4362V34.898H50.7997V35.2104H48.4362V37.4617H51.2787V37.7843H48.0401V32.3866H51.2787Z" fill="white"/>
<path fill-rule="evenodd" clip-rule="evenodd" d="M55.5969 32.3866V33.1909H53.1282V34.7857H55.2087V35.5891H53.1282V37.7843H52.0884V32.3976H55.5969V32.3866Z" fill="white"/>
<path fill-rule="evenodd" clip-rule="evenodd" d="M60.5224 35.0854C60.5224 34.7977 60.4821 34.5391 60.4014 34.3118C60.3217 34.0836 60.2125 33.8855 60.0718 33.7255C59.9311 33.5665 59.7511 33.4475 59.5415 33.3587C59.331 33.27 59.1007 33.23 58.841 33.23C58.5803 33.23 58.3501 33.27 58.1405 33.3587C57.93 33.4475 57.7598 33.5665 57.6092 33.7255C57.4597 33.8855 57.3495 34.0836 57.2688 34.3118C57.1891 34.5391 57.1488 34.7977 57.1488 35.0854C57.1488 35.3732 57.1891 35.6318 57.2688 35.86C57.3495 36.0873 57.4597 36.2863 57.6092 36.4454C57.7598 36.6044 57.93 36.7234 58.1405 36.8131C58.3501 36.9019 58.5803 36.9409 58.841 36.9409C59.1007 36.9409 59.331 36.9019 59.5415 36.8131C59.7511 36.7234 59.9213 36.6044 60.0718 36.4454C60.2125 36.2863 60.3217 36.0873 60.4014 35.86C60.4821 35.6318 60.5224 35.3732 60.5224 35.0854ZM61.5345 35.0854C61.5345 35.4741 61.4743 35.8333 61.3441 36.1613C61.214 36.4902 61.0335 36.778 60.7918 37.0178C60.562 37.2567 60.2711 37.4456 59.9397 37.5856C59.6083 37.7246 59.2375 37.7843 58.8361 37.7843C58.4347 37.7843 58.0629 37.7158 57.7315 37.5856C57.4011 37.4456 57.12 37.2675 56.8794 37.0178C56.6377 36.778 56.4572 36.4902 56.3271 36.1613C56.1969 35.8333 56.1367 35.4741 56.1367 35.0854C56.1367 34.6978 56.1969 34.3385 56.3271 34.0096C56.4572 33.6807 56.6377 33.3929 56.8794 33.1531C57.12 32.9142 57.4011 32.7253 57.7315 32.5853C58.0629 32.4463 58.4347 32.3866 58.8361 32.3866C59.2375 32.3866 59.6083 32.4561 59.9397 32.5961C60.2711 32.736 60.5512 32.925 60.7918 33.1638C61.0226 33.4027 61.214 33.6915 61.3441 34.0204C61.4645 34.3385 61.5345 34.6978 61.5345 35.0854Z" fill="white"/>
<path fill-rule="evenodd" clip-rule="evenodd" d="M63.3367 34.9528H63.5471C63.7207 34.9528 63.8673 34.9318 63.9949 34.8817C64.1235 34.8306 64.2242 34.7696 64.307 34.6875C64.3888 34.6063 64.4526 34.5052 64.4895 34.3921C64.5264 34.2809 64.5533 34.1478 64.5533 34.0156C64.5533 33.7403 64.4715 33.527 64.307 33.3848C64.1424 33.2416 63.8951 33.1605 63.5651 33.1605H62.9806V37.7843H62.0743V32.3866H63.5561C63.8852 32.3866 64.1694 32.4276 64.4068 32.4987C64.6451 32.5688 64.8366 32.6809 64.9841 32.8131C65.1297 32.9463 65.2484 33.1195 65.3132 33.3037C65.386 33.496 65.4229 33.7002 65.4229 33.9335C65.4229 34.1177 65.395 34.291 65.3491 34.4542C65.3042 34.6164 65.2304 34.7595 65.1387 34.8917C65.047 35.0239 64.9373 35.137 64.8006 35.2381C64.663 35.3403 64.5165 35.4214 64.3429 35.4734C64.4526 35.5435 64.5533 35.6456 64.6361 35.7778L65.8527 37.7743H65.0389C64.9562 37.7743 64.8914 37.7543 64.8366 37.7243C64.7817 37.6932 64.7368 37.6432 64.6999 37.5711L63.6847 35.8399C63.6568 35.7988 63.602 35.7067 63.5471 35.6967H63.227V35.0449C63.236 34.9528 63.3367 34.9528 63.3367 34.9528Z" fill="white"/>
<path fill-rule="evenodd" clip-rule="evenodd" d="M68.8167 37.0192C69.0316 37.0192 69.2264 36.9987 69.3828 36.9586C69.5392 36.9196 69.6956 36.86 69.8414 36.7906V35.5975H69.1976C69.1391 35.5975 69.0902 35.577 69.0508 35.5476C69.0124 35.5076 68.9923 35.4685 68.9923 35.4187V34.8617H70.7107V37.2283C70.584 37.327 70.4468 37.4062 70.3 37.4765C70.1542 37.5459 70.0074 37.6065 69.8414 37.6553C69.6764 37.7052 69.5104 37.7345 69.3243 37.755C69.1391 37.7746 68.9434 37.7843 68.7294 37.7843C68.3485 37.7843 68.0069 37.715 67.6846 37.586C67.3622 37.456 67.0887 37.2674 66.8642 37.029C66.6301 36.7906 66.4546 36.5023 66.3183 36.174C66.1907 35.8466 66.1226 35.4783 66.1226 35.0903C66.1226 34.6926 66.1811 34.335 66.3087 33.9969C66.4354 33.6686 66.6109 33.3803 66.845 33.1419C67.0791 32.9035 67.3622 32.7149 67.6942 32.5859C68.0261 32.4559 68.3974 32.3866 68.8071 32.3866C69.2264 32.3866 69.5977 32.4462 69.8999 32.5752C70.2127 32.7051 70.467 32.8742 70.6809 33.0725L70.3979 33.5201C70.3394 33.61 70.2712 33.6598 70.183 33.6598C70.1245 33.6598 70.0659 33.6393 70.0074 33.5992C69.9297 33.5494 69.852 33.5093 69.7733 33.4595C69.6956 33.4106 69.6073 33.3715 69.5104 33.3403C69.4125 33.311 69.3051 33.2816 69.188 33.2611C69.071 33.2416 68.9242 33.2318 68.7678 33.2318C68.5145 33.2318 68.2794 33.2709 68.0751 33.3608C67.8697 33.4507 67.6942 33.5699 67.5483 33.7389C67.4015 33.8982 67.2941 34.0966 67.2164 34.3252C67.1377 34.5539 67.0983 34.8118 67.0983 35.0903C67.0983 35.3991 67.1377 35.6669 67.2259 35.9053C67.3142 36.1437 67.4313 36.343 67.5771 36.5023C67.7239 36.6616 67.9091 36.7906 68.1144 36.8795C68.3188 36.9694 68.573 37.0192 68.8167 37.0192Z" fill="white"/>
<path fill-rule="evenodd" clip-rule="evenodd" d="M74.2617 35.6154H72.5704V36.9796H75.0289V37.7843H71.5203V32.3866H75.0289V33.1923H72.5601V34.8517H74.5033V35.4423C74.5033 35.4423 74.493 35.6154 74.2617 35.6154Z" fill="white"/>
</g>
<defs>
<linearGradient id="paint0_linear_0_85" x1="50" y1="0" x2="50" y2="100" gradientUnits="userSpaceOnUse">
<stop stop-color="#1E1E1E"/>
<stop offset="1" stop-color="#0D0D0D"/>
</linearGradient>
<linearGradient id="paint1_linear_0_85" x1="198.04" y1="39.4626" x2="77.3771" y2="50" gradientUnits="userSpaceOnUse">
<stop stop-color="#FFCB00"/>
<stop offset="1" stop-color="#F06A2B"/>
</linearGradient>
</defs>
</svg>
